<svg width="16" height="16" viewBox="0 0 16 16" fill="none" xmlns="http://www.w3.org/2000/svg">
<path fill-rule="evenodd" clip-rule="evenodd" d="M6.73347 3.59979C6.92873 3.79505 6.92873 4.11163 6.73347 4.30689L3.04036 8.00001L6.73347 11.6931C6.92873 11.8884 6.92873 12.205 6.73347 12.4002C6.53821 12.5955 6.22163 12.5955 6.02636 12.4002L1.9797 8.35356C1.88593 8.25979 1.83325 8.13261 1.83325 8.00001C1.83325 7.8674 1.88593 7.74022 1.9797 7.64645L6.02636 3.59979C6.22163 3.40452 6.53821 3.40452 6.73347 3.59979Z" fill="#141414"/>
<path fill-rule="evenodd" clip-rule="evenodd" d="M1.94678 8C1.94678 7.72386 2.17063 7.5 2.44678 7.5H13.6668C13.9429 7.5 14.1668 7.72386 14.1668 8C14.1668 8.27614 13.9429 8.5 13.6668 8.5H2.44678C2.17063 8.5 1.94678 8.27614 1.94678 8Z" fill="#141414"/>
</svg>
