<svg width="16" height="16" viewBox="0 0 16 16" fill="none" xmlns="http://www.w3.org/2000/svg">
<path d="M9.03332 13.4399C8.85998 13.5133 8.67332 13.5799 8.47332 13.6466L7.41998 13.9933C4.77332 14.8466 3.37998 14.1333 2.51998 11.4866L1.66665 8.85328C0.813317 6.20661 1.51998 4.80661 4.16665 3.95328L5.19332 3.61328C5.06665 3.93328 4.95998 4.29995 4.85998 4.71328L4.20665 7.50661C3.47332 10.6466 4.54665 12.3799 7.68665 13.1266L8.80665 13.3933C8.87998 13.4133 8.95998 13.4266 9.03332 13.4399Z" fill="#0A1B20"/>
<path d="M11.4467 2.13996L10.3334 1.87996C8.1067 1.3533 6.78004 1.78663 6.00004 3.39996C5.80004 3.80663 5.64004 4.29996 5.50671 4.86663L4.85337 7.65997C4.20004 10.4466 5.06004 11.82 7.84004 12.48L8.96004 12.7466C9.3467 12.84 9.70671 12.9 10.04 12.9266C12.12 13.1266 13.2267 12.1533 13.7867 9.74663L14.44 6.95996C15.0934 4.1733 14.24 2.7933 11.4467 2.13996Z" fill="#0A1B20"/>
</svg>
