<svg width="20" height="20" viewBox="0 0 20 20" fill="none" xmlns="http://www.w3.org/2000/svg">
<rect width="20" height="20" rx="2" fill="#FC493C"/>
<path d="M14.2613 10.9281C14.1304 9.30892 13.3368 8.29422 12.6367 7.3988C11.9885 6.56984 11.4286 5.85399 11.4286 4.79801C11.4286 4.71319 11.3786 4.63566 11.2993 4.59679C11.2198 4.55769 11.1242 4.56409 11.0519 4.61401C10.0005 5.32876 9.1232 6.53341 8.81675 7.68283C8.604 8.48305 8.57586 9.38267 8.57191 9.97684C7.60092 9.77981 7.38097 8.40001 7.37865 8.38498C7.36771 8.31341 7.32168 8.25113 7.25472 8.21712C7.18706 8.18355 7.10753 8.18111 7.03894 8.21336C6.98802 8.23677 5.78916 8.81547 5.7194 11.126C5.71452 11.2029 5.71429 11.28 5.71429 11.3571C5.71429 13.6018 7.63695 15.4282 10 15.4282C10.0033 15.4285 10.0068 15.4289 10.0095 15.4282C10.0095 15.4282 10.0114 15.4282 10.0126 15.4282C12.3698 15.4218 14.2857 13.5978 14.2857 11.3571C14.2857 11.2442 14.2613 10.9281 14.2613 10.9281ZM10 14.9759C9.21224 14.9759 8.57144 14.3274 8.57144 13.5303C8.57144 13.5031 8.57121 13.4757 8.57329 13.4421C8.58282 13.106 8.65003 12.8765 8.72374 12.7238C8.86186 13.0057 9.10878 13.2648 9.50987 13.2648C9.64148 13.2648 9.74798 13.1636 9.74798 13.0386C9.74798 12.7166 9.75495 12.345 9.83935 12.0098C9.91446 11.7125 10.0939 11.3962 10.3214 11.1426C10.4225 11.4717 10.6197 11.7381 10.8122 11.9981C11.0877 12.37 11.3726 12.7546 11.4226 13.4103C11.4256 13.4492 11.4286 13.4883 11.4286 13.5303C11.4286 14.3274 10.7878 14.9759 10 14.9759Z" fill="white"/>
</svg>
