<svg width="20" height="20" viewBox="0 0 20 20" fill="none" xmlns="http://www.w3.org/2000/svg">
<rect width="20" height="20" rx="2" fill="#ECAC0A"/>
<g clip-path="url(#clip0_213_15)">
<path d="M10 4.54546C6.98755 4.54546 4.54546 6.98754 4.54546 9.99999C4.54546 13.0125 6.98755 15.4545 10 15.4545C13.0125 15.4545 15.4545 13.0125 15.4545 9.99999C15.4514 6.98889 13.0111 4.54867 10 4.54546ZM10.3896 9.99999C10.3896 10.2152 10.2152 10.3896 10 10.3896H6.88312C6.66794 10.3896 6.49351 10.2152 6.49351 9.99999C6.49351 9.78481 6.66794 9.61038 6.88312 9.61038H9.61042V6.88312C9.61042 6.66793 9.78485 6.4935 10 6.4935C10.2152 6.4935 10.3896 6.66793 10.3896 6.88312V9.99999Z" fill="white"/>
</g>
<defs>
<clipPath id="clip0_213_15">
<rect width="12" height="12" fill="white" transform="translate(4 4)"/>
</clipPath>
</defs>
</svg>
