<svg width="14" height="14" viewBox="0 0 14 14" fill="none" xmlns="http://www.w3.org/2000/svg">
<path d="M9.79334 0.333328H4.20668C1.78001 0.333328 0.333344 1.77999 0.333344 4.20666V9.78666C0.333344 12.22 1.78001 13.6667 4.20668 13.6667H9.78668C12.2133 13.6667 13.66 12.22 13.66 9.79333V4.20666C13.6667 1.77999 12.22 0.333328 9.79334 0.333328ZM7.88668 10.3333H6.10668C5.83334 10.3333 5.60668 10.1067 5.60668 9.83333C5.60668 9.55999 5.83334 9.33333 6.10668 9.33333H7.88668C8.16001 9.33333 8.38668 9.55999 8.38668 9.83333C8.38668 10.1067 8.16668 10.3333 7.88668 10.3333ZM9.66668 7.49999H4.33334C4.06001 7.49999 3.83334 7.27333 3.83334 6.99999C3.83334 6.72666 4.06001 6.49999 4.33334 6.49999H9.66668C9.94001 6.49999 10.1667 6.72666 10.1667 6.99999C10.1667 7.27333 9.94001 7.49999 9.66668 7.49999ZM11 4.66666H3.00001C2.72668 4.66666 2.50001 4.43999 2.50001 4.16666C2.50001 3.89333 2.72668 3.66666 3.00001 3.66666H11C11.2733 3.66666 11.5 3.89333 11.5 4.16666C11.5 4.43999 11.2733 4.66666 11 4.66666Z" fill="#0A1B20"/>
</svg>
