<svg width="16" height="16" viewBox="0 0 16 16" fill="none" xmlns="http://www.w3.org/2000/svg">
<path d="M7.99997 3.09998C4.8133 3.09998 2.21997 5.69331 2.21997 8.87998C2.21997 12.0666 4.8133 14.6666 7.99997 14.6666C11.1866 14.6666 13.78 12.0733 13.78 8.88664C13.78 5.69998 11.1866 3.09998 7.99997 3.09998ZM8.49997 8.66664C8.49997 8.93998 8.2733 9.16664 7.99997 9.16664C7.72664 9.16664 7.49997 8.93998 7.49997 8.66664V5.33331C7.49997 5.05998 7.72664 4.83331 7.99997 4.83331C8.2733 4.83331 8.49997 5.05998 8.49997 5.33331V8.66664Z" fill="#0A1B20"/>
<path d="M9.9266 2.30004H6.07326C5.80659 2.30004 5.59326 2.08671 5.59326 1.82004C5.59326 1.55337 5.80659 1.33337 6.07326 1.33337H9.9266C10.1933 1.33337 10.4066 1.54671 10.4066 1.81337C10.4066 2.08004 10.1933 2.30004 9.9266 2.30004Z" fill="#0A1B20"/>
</svg>
